Coordinates
version=1
nRows=21
nColumns=22
inDegrees=yes

Units are S.I. units (second, meters, Newtons, ...)
If the header above contains a line with 'inDegrees', this indicates whether rotational values are in degrees (yes) or radians (no).

endheader
time	pelvis_tilt	pelvis_list	pelvis_rotation	pelvis_tx	pelvis_ty	pelvis_tz	hip_flexion_r	hip_adduction_r	hip_rotation_r	knee_angle_r	ankle_angle_r	subtalar_angle_r	hip_flexion_l	hip_adduction_l	hip_rotation_l	knee_angle_l	ankle_angle_l	subtalar_angle_l	lumbar_extension	lumbar_bending	lumbar_rotation
      4.03000000	     -3.82733428	     -1.01317244	   -383.31276158	      0.71915761	      0.93668276	     -0.32835115	     30.30804847	     -0.07296089	    -27.21616634	    -32.67280924	      4.62699348	     -6.34372625	     -0.48731405	    -10.20033467	      1.54372167	    -49.07912246	     -2.61928595	     13.96645230	      0.90988131	     11.40511361	    -16.64069652
      4.04000000	     -3.83742970	     -1.08899378	   -384.04667252	      0.72602507	      0.93760349	     -0.32069564	     29.73005718	      0.57571364	    -26.72356026	    -32.70112919	      5.18936783	     -6.39227504	      0.88549856	    -10.35542032	      1.91574972	    -51.32984206	     -3.02987078	     12.77894211	      0.84863422	     11.50579286	    -16.48384720
      4.05000000	     -3.86738661	     -1.19455147	   -384.78456565	      0.73264217	      0.93854094	     -0.31300234	     29.10597831	      1.27182903	    -26.25293182	    -32.63393545	      5.72445332	     -6.41796790	      2.25735594	    -10.55606698	      2.31650351	    -53.37952756	     -3.08651391	     11.59068855	      0.78375162	     11.62171190	    -16.31522230
      4.06000000	     -3.93286847	     -1.32809260	   -385.50953077	      0.73901212	      0.93947033	     -0.30529941	     28.45593150	      2.00321741	    -25.84123889	    -32.48386634	      6.22801101	     -6.43568531	      3.65420276	    -10.81155181	      2.76130166	    -55.22923314	     -2.88191381	     10.48076490	      0.73412421	     11.75989734	    -16.16630305
      4.07000000	     -4.00395805	     -1.46319674	   -386.28683865	      0.74513598	      0.94043231	     -0.29752872	     27.76402637	      2.77319730	    -25.38298184	    -32.24508227	      6.69343110	     -6.45331044	      5.00701412	    -11.07220488	      3.19933848	    -56.82539518	     -2.48380724	      9.32537282	      0.67012938	     11.88406255	    -15.92420933
      4.08000000	     -4.09136583	     -1.59695406	   -387.10560641	      0.75098263	      0.94139248	     -0.28971776	     27.05298503	      3.57470653	    -24.88101103	    -31.93507273	      7.11042774	     -6.47911073	      6.33803003	    -11.34438420	      3.64017622	    -58.17800270	     -1.98616316	      8.22535166	      0.60127809	     11.99726526	    -15.63909928
      4.09000000	     -4.18661197	     -1.71658743	   -387.98302818	      0.75656208	      0.94235079	     -0.28186237	     26.32258599	      4.39826904	    -24.30484162	    -31.56109208	      7.48331239	     -6.51759720	      7.62711991	    -11.60864756	      4.07033544	    -59.27277616	     -1.43208349	      7.18004480	      0.52401082	     12.08715998	    -15.28698159
      4.10000000	     -4.28278569	     -1.81546425	   -388.92132762	      0.76188430	      0.94330358	     -0.27396693	     25.57163175	      5.23268212	    -23.64143943	    -31.13151452	      7.81421998	     -6.57162536	      8.86037817	    -11.85311966	      4.48884880	    -60.10304652	     -0.83932634	      6.19004942	      0.43709935	     12.14612444	    -14.87047414
      4.11000000	     -4.37760388	     -1.90018167	   -389.91428402	      0.76696256	      0.94424309	     -0.26604088	     24.79727264	      6.07492198	    -22.89659282	    -30.65699533	      8.11203767	     -6.64309331	     10.02990431	    -12.08286364	      4.90214331	    -60.67302945	     -0.21085449	      5.28453142	      0.33613480	     12.18225943	    -14.40189980
      4.12000000	     -4.46848424	     -1.96924990	   -390.95761145	      0.77181224	      0.94516757	     -0.25808344	     23.99715082	      6.91961841	    -22.06081289	    -30.14065211	      8.37230848	     -6.73251657	     11.12958630	    -12.29660021	      5.30898880	    -60.98562530	      0.46712814	      4.45987558	      0.22331984	     12.19369038	    -13.89665412
      4.13000000	     -4.56183985	     -2.02557617	   -392.03957566	      0.77647062	      0.94606405	     -0.25009197	     23.17176115	      7.75992915	    -21.16596567	    -29.58534897	      8.61273225	     -6.84092272	     12.16034014	    -12.50149448	      5.71667809	    -61.04449102	      1.21273125	      3.70652523	      0.11051891	     12.18698910	    -13.35327983
      4.14000000	     -4.66244402	     -2.07633500	   -393.15139382	      0.78094005	      0.94692022	     -0.24207998	     22.32341100	      8.60148036	    -20.20425971	    -28.99415778	      8.82057855	     -6.96691984	     13.13189291	    -12.70924842	      6.12903745	    -60.87028408	      2.01727693	      2.99645458	     -0.00227156	     12.17440058	    -12.80178870
      4.15000000	     -4.78112221	     -2.12441680	   -394.28185637	      0.78525972	      0.94772365	     -0.23403825	     21.45483661	      9.44414267	    -19.19974659	    -28.36545819	      9.00538442	     -7.10756564	     14.05238511	    -12.93209823	      6.54857112	    -60.47273513	      2.87773523	      2.30784365	     -0.09937259	     12.16385047	    -12.24646797
      4.16000000	     -4.95006892	     -2.15990344	   -395.42753900	      0.78941860	      0.94842564	     -0.22597237	     20.59903676	     10.30003509	    -18.13644930	    -27.69402605	      9.14049032	     -7.22849683	     14.97543133	    -13.18538300	      6.97589496	    -59.88826206	      3.76049256	      1.73936771	     -0.14396874	     12.16845814	    -11.69986863
      4.17000000	     -5.09014259	     -2.22174799	   -396.57537015	      0.79353789	      0.94913289	     -0.21788079	     19.66140971	     11.13105472	    -17.08828048	    -27.00223506	      9.30774205	     -7.41847961	     15.77042593	    -13.44414222	      7.41111568	    -59.08401930	      4.69641763	      0.90073530	     -0.22800801	     12.17803856	    -11.15497056
      4.18000000	     -5.28368815	     -2.26085044	   -397.73309221	      0.79750982	      0.94971436	     -0.20979575	     18.75206840	     11.96025085	    -15.98557619	    -26.28477857	      9.42888307	     -7.58086176	     16.58803006	    -13.71900812	      7.85574227	    -58.13610679	      5.61111564	      0.18636914	     -0.25146898	     12.20024180	    -10.61993153
      4.19000000	     -5.48944724	     -2.28889386	   -398.90251458	      0.80137327	      0.95022756	     -0.20172952	     17.82811962	     12.76358276	    -14.85179887	    -25.55148398	      9.53812327	     -7.73440454	     17.36938545	    -13.98836193	      8.29948498	    -57.03917851	      6.50444101	     -0.49445201	     -0.26147464	     12.22429888	    -10.08678678
      4.20000000	     -5.69899159	     -2.29818765	   -400.08459059	      0.80510931	      0.95066642	     -0.19372921	     16.90168126	     13.52528480	    -13.68183168	    -24.82381346	      9.63832740	     -7.87853778	     18.11994389	    -14.22691038	      8.75377825	    -55.81859384	      7.36094095	     -1.15573812	     -0.26662800	     12.24156050	     -9.54584880
      4.21000000	     -5.91179523	     -2.27668146	   -401.28491274	      0.80870652	      0.95103297	     -0.18581486	     15.98090423	     14.23619841	    -12.46369283	    -24.09963105	      9.71122905	     -7.99000475	     18.85297207	    -14.41789359	      9.22079619	    -54.49698350	      8.14541520	     -1.72361504	     -0.26087649	     12.24452033	     -8.99883286
      4.22000000	     -6.09246507	     -2.22623082	   -402.50083530	      0.81222135	      0.95135670	     -0.17802375	     15.04672100	     14.86060785	    -11.23410959	    -23.40163192	      9.81077116	     -8.10537181	     19.52640638	    -14.52587569	      9.70483315	    -53.07643289	      8.89411313	     -2.33107579	     -0.27428876	     12.21755625	     -8.44300863
      4.23000000	     -6.25364233	     -2.13718797	   -403.72707480	      0.81565894	      0.95161567	     -0.17035445	     14.12084019	     15.39898330	     -9.99864242	    -22.73026972	      9.92556452	     -8.21337088	     20.16996248	    -14.54553610	     10.22509558	    -51.58395333	      9.57713805	     -2.88248231	     -0.28375504	     12.15999373	     -7.88864636
